<svg width="444" height="211" viewBox="0 0 444 211" fill="none" xmlns="http://www.w3.org/2000/svg">
  <g opacity="0.4">
    <path d="M67.0573 63.1999L67.0239 63.2601L66.9956 63.3229L37.3562 129.12L38.8606 129.797L37.3562 129.12C36.7749 130.41 37.7188 131.871 39.1342 131.871H69.31C70.387 131.871 71.26 130.997 71.26 129.921V63.1593C71.26 61.1468 68.5817 60.4532 67.605 62.213L67.0573 63.1999ZM107.76 129.921C107.76 130.997 108.633 131.871 109.71 131.871H125.2V161.621H109.71C108.633 161.621 107.76 162.494 107.76 163.571V205.921H71.26V163.571C71.26 162.494 70.3869 161.621 69.31 161.621H3.36686L1.67868 137.875L70.4756 4.46055H107.76V129.921ZM70.8527 3.72925C70.8521 3.73046 70.8515 3.73167 70.8508 3.73288L70.8527 3.72928L70.8527 3.72925Z" stroke="#C02554" stroke-width="3.3"/>
    <path d="M358.057 63.1999L358.024 63.2601L357.996 63.3229L328.356 129.12L329.861 129.797L328.356 129.12C327.775 130.41 328.719 131.871 330.134 131.871H360.31C361.387 131.871 362.26 130.997 362.26 129.921V63.1593C362.26 61.1468 359.582 60.4532 358.605 62.213L358.057 63.1999ZM398.76 129.921C398.76 130.997 399.633 131.871 400.71 131.871H416.2V161.621H400.71C399.633 161.621 398.76 162.494 398.76 163.571V205.921H362.26V163.571C362.26 162.494 361.387 161.621 360.31 161.621H294.367L292.679 137.875L361.476 4.46055H398.76V129.921ZM361.853 3.72925C361.852 3.73046 361.851 3.73167 361.851 3.73288L361.853 3.72928L361.853 3.72925Z" stroke="#C02554" stroke-width="3.3"/>
    <path d="M167.499 187.56L167.499 187.56C157.498 173.362 152.209 152.864 151.84 125.849V87.19C151.84 59.1307 156.927 37.9327 166.882 23.3607L166.883 23.3606C176.765 8.89008 190.919 1.65 209.53 1.65C228.148 1.65 242.302 8.82557 252.192 23.1571C262.148 37.585 267.32 58.3465 267.51 85.6459V122.91C267.51 151.06 262.402 172.337 252.398 186.948C242.453 201.474 228.326 208.73 209.81 208.73C191.471 208.73 177.43 201.672 167.499 187.56ZM225.975 44.5344L225.974 44.5328C224.31 40.3289 222.129 37.0367 219.359 34.7909C216.563 32.5238 213.261 31.4 209.53 31.4C206.019 31.4 202.878 32.4329 200.173 34.5108C197.492 36.5711 195.322 39.5936 193.606 43.4562C190.188 51.1472 188.426 62.4902 188.19 77.3237L188.19 77.3369V77.35V128.4C188.19 144.956 189.808 157.494 193.158 165.854C194.844 170.06 197.056 173.352 199.862 175.596C202.693 177.86 206.035 178.98 209.81 178.98C213.391 178.98 216.573 177.928 219.283 175.799C221.969 173.689 224.1 170.594 225.743 166.644C229.008 158.794 230.669 146.985 230.86 131.37L230.86 131.36V131.35V81.5969C230.867 81.537 230.87 81.4763 230.87 81.415C230.87 65.2362 229.27 52.887 225.975 44.5344Z" stroke="#F2822F" stroke-width="3.3"/>
  </g>
</svg>
